<svg width="30" height="31" viewBox="0 0 30 31" fill="none" xmlns="http://www.w3.org/2000/svg">
<path d="M13.6429 28.9846C13.5239 29.0051 13.402 29.0051 13.283 28.9846C13.0233 28.9102 12.7964 28.7573 12.6367 28.5491C12.4769 28.341 12.3932 28.089 12.3983 27.8316V27.675L13.7479 18.6362H7.23981C7.02034 18.6364 6.80502 18.5795 6.6173 18.4715C6.42957 18.3636 6.27663 18.2089 6.17513 18.0242C6.06045 17.8386 6 17.6273 6 17.4121C6 17.1969 6.06045 16.9856 6.17513 16.8L9.17424 11.8322L15.3224 2.55147C15.459 2.33249 15.6699 2.16398 15.9205 2.07349C16.1711 1.98299 16.4466 1.97587 16.702 2.05327C16.9617 2.12768 17.1886 2.28059 17.3484 2.48872C17.5081 2.69685 17.5918 2.9488 17.5867 3.20625V3.36283L16.2371 12.4016H22.7602C22.9797 12.4014 23.195 12.4584 23.3827 12.5663C23.5704 12.6742 23.7234 12.829 23.8249 13.0137C23.9395 13.1993 24 13.4106 24 13.6258C24 13.8409 23.9395 14.0522 23.8249 14.2378L20.8258 19.2056L14.6776 28.4864C14.5646 28.6467 14.4101 28.7767 14.2289 28.8639C14.0477 28.9512 13.8459 28.9927 13.6429 28.9846ZM8.90432 16.4442H14.9025C15.0679 16.446 15.2314 16.4788 15.3834 16.5406C15.5355 16.6024 15.6733 16.692 15.7889 16.8044C15.9044 16.9168 15.9956 17.0496 16.057 17.1954C16.1185 17.3412 16.1491 17.497 16.1472 17.6541V17.8106L15.2624 23.7037L19.0113 18.0099L21.1707 14.4798H15.1724C15.007 14.478 14.8436 14.4452 14.6915 14.3834C14.5395 14.3216 14.4017 14.2319 14.2861 14.1196C14.1705 14.0072 14.0794 13.8744 14.0179 13.7286C13.9565 13.5828 13.9258 13.4269 13.9278 13.2699V13.1133L14.8126 7.22032L11.0637 12.914L8.90432 16.4442Z" fill="#9B9591"/>
</svg>
